<svg width="29" height="29" viewBox="0 0 29 29" fill="none" xmlns="http://www.w3.org/2000/svg">
<g clip-path="url(#clip0_25_1403)">
<path d="M12.8528 0.100321C6.18546 0.825027 0.822638 6.18785 0.0979322 12.7102C-0.626774 19.5224 3.28664 25.61 9.22923 27.929C9.66405 28.074 10.0989 27.7841 10.0989 27.2043V24.8853C10.0989 24.8853 9.51911 25.0302 8.7944 25.0302C6.76523 25.0302 5.89558 23.2909 5.75064 22.2763C5.6057 21.6966 5.31581 21.2617 4.88099 20.8269C4.44617 20.682 4.30123 20.682 4.30123 20.537C4.30123 20.2471 4.73605 20.2471 4.88099 20.2471C5.75064 20.2471 6.47534 21.2617 6.76523 21.6966C7.48993 22.8561 8.35958 23.146 8.7944 23.146C9.37417 23.146 9.80899 23.001 10.0989 22.8561C10.2438 21.8415 10.6786 20.8269 11.5483 20.2471C8.21464 19.5224 5.75064 17.6382 5.75064 14.4495C5.75064 12.8551 6.47534 11.2608 7.48993 10.1013C7.34499 9.81138 7.20005 9.08667 7.20005 8.07209C7.20005 7.49232 7.20005 6.62267 7.63487 5.75303C7.63487 5.75303 9.66405 5.75303 11.6932 7.63726C12.4179 7.34738 13.4325 7.20244 14.4471 7.20244C15.4617 7.20244 16.4763 7.34738 17.3459 7.63726C19.2302 5.75303 21.4043 5.75303 21.4043 5.75303C21.6942 6.62267 21.6942 7.49232 21.6942 8.07209C21.6942 9.23162 21.5492 9.81138 21.4043 10.1013C22.4189 11.2608 23.1436 12.7102 23.1436 14.4495C23.1436 17.6382 20.6796 19.5224 17.3459 20.2471C18.2156 20.9719 18.7953 22.2763 18.7953 23.5808V27.3493C18.7953 27.7841 19.2302 28.2189 19.8099 28.074C25.1728 25.8999 28.9412 20.682 28.9412 14.5944C28.9412 5.89797 21.5492 -0.914267 12.8528 0.100321Z" fill="black"/>
</g>
<defs>
<clipPath id="clip0_25_1403">
<rect width="28.9882" height="28.9882" fill="white" transform="translate(0.0117188)"/>
</clipPath>
</defs>
</svg>
