<svg width="29" height="29" viewBox="0 0 29 29" fill="none" xmlns="http://www.w3.org/2000/svg">
<g clip-path="url(#clip0_25_1398)">
<path d="M28.7063 11.6554H27.5388V11.5953H14.4941V17.3929H22.6855C21.4904 20.7679 18.2793 23.1906 14.4941 23.1906C9.69149 23.1906 5.79765 19.2967 5.79765 14.4941C5.79765 9.69149 9.69149 5.79765 14.4941 5.79765C16.711 5.79765 18.7278 6.63396 20.2635 8.00003L24.3632 3.90037C21.7745 1.48782 18.3119 0 14.4941 0C6.48974 0 0 6.48974 0 14.4941C0 22.4985 6.48974 28.9882 14.4941 28.9882C22.4985 28.9882 28.9882 22.4985 28.9882 14.4941C28.9882 13.5223 28.8882 12.5736 28.7063 11.6554Z" fill="#FBC02D"/>
<path d="M1.67114 7.74783L6.43319 11.2402C7.72171 8.05003 10.8423 5.79765 14.4941 5.79765C16.711 5.79765 18.7278 6.63396 20.2635 8.00003L24.3631 3.90037C21.7745 1.48782 18.3118 0 14.4941 0C8.9269 0 4.09891 3.14305 1.67114 7.74783Z" fill="#E53935"/>
<path d="M14.4941 28.9882C18.2379 28.9882 21.6397 27.5555 24.2117 25.2256L19.7257 21.4296C18.2705 22.5318 16.4617 23.1906 14.4941 23.1906C10.7242 23.1906 7.52314 20.7867 6.31723 17.4321L1.5907 21.0737C3.98947 25.7676 8.86095 28.9882 14.4941 28.9882Z" fill="#4CAF50"/>
<path d="M28.7063 11.6554L28.6948 11.5953H27.5388H14.4941V17.3929H22.6855C22.1115 19.0141 21.0687 20.4121 19.7236 21.4303L19.7258 21.4288L24.2117 25.2248C23.8943 25.5133 28.9883 21.7412 28.9883 14.4941C28.9883 13.5223 28.8882 12.5736 28.7063 11.6554Z" fill="#1565C0"/>
</g>
<defs>
<clipPath id="clip0_25_1398">
<rect width="28.9882" height="28.9882" fill="white"/>
</clipPath>
</defs>
</svg>
