<svg width="52" height="52" viewBox="0 0 52 52" fill="none" xmlns="http://www.w3.org/2000/svg">
<mask id="mask0_17_1018" style="mask-type:alpha" maskUnits="userSpaceOnUse" x="0" y="0" width="52" height="52">
<rect width="52" height="52" rx="26" fill="black"/>
</mask>
<g mask="url(#mask0_17_1018)">
<path d="M22.4815 66.1719L19.2047 62.8952C20.1149 61.7665 20.6974 60.6014 20.9523 59.3999C21.2072 58.1985 21.4347 56.9696 21.635 55.7135C21.8353 54.4575 22.1903 53.1741 22.7 51.8633C23.2096 50.5526 24.1381 49.2237 25.4852 47.8766C26.8323 46.5295 28.2067 45.6101 29.6085 45.1186C31.0103 44.6271 32.3755 44.263 33.7045 44.0264C35.0334 43.7897 36.3259 43.4984 37.582 43.1525C38.8381 42.8067 39.9941 42.1058 41.0499 41.0499C42.1058 39.9941 42.8067 38.8381 43.1525 37.582C43.4984 36.3259 43.7897 35.0334 44.0264 33.7045C44.263 32.3755 44.6271 31.0103 45.1186 29.6085C45.6101 28.2067 46.5295 26.8323 47.8766 25.4852C49.2237 24.1381 50.5434 23.2188 51.836 22.7273C53.1286 22.2358 54.412 21.8808 55.6862 21.6623C56.9605 21.4439 58.1984 21.2073 59.3999 20.9523C60.6014 20.6974 61.7665 20.1149 62.8952 19.2047L66.1719 22.4815C64.8247 23.683 63.4959 24.4841 62.1852 24.8845C60.8745 25.2849 59.5819 25.5945 58.3077 25.8129C57.0334 26.0314 55.7955 26.3044 54.594 26.6321C53.3925 26.9598 52.2456 27.6698 51.1534 28.762C50.0611 29.8543 49.3329 31.0375 48.9688 32.3119C48.6048 33.5862 48.3044 34.8877 48.0677 36.2167C47.831 37.5456 47.476 38.9018 47.0028 40.2854C46.5295 41.6689 45.6374 43.016 44.3267 44.3267C43.016 45.6374 41.6689 46.5295 40.2854 47.0028C38.9018 47.476 37.5456 47.831 36.2167 48.0677C34.8877 48.3044 33.5862 48.6048 32.3119 48.9688C31.0375 49.3329 29.8543 50.0611 28.762 51.1534C27.6698 52.2456 26.9507 53.4016 26.6048 54.6213C26.2589 55.841 25.9859 57.0789 25.7856 58.335C25.5853 59.591 25.2849 60.8744 24.8845 62.1852C24.484 63.4959 23.683 64.8248 22.4815 66.1719ZM12.8696 56.56L9.59283 53.2833C10.503 52.1546 11.0855 50.9895 11.3404 49.788C11.5954 48.5866 11.8228 47.3577 12.0231 46.1016C12.2234 44.8456 12.5784 43.5622 13.0881 42.2514C13.5977 40.9407 14.5262 39.6118 15.8733 38.2647C17.2204 36.9176 18.5948 35.9982 19.9966 35.5067C21.3984 35.0152 22.7636 34.6512 24.0926 34.4145C25.4215 34.1778 26.714 33.8865 27.9701 33.5407C29.2262 33.1948 30.3822 32.4939 31.438 31.438C32.4939 30.3822 33.1948 29.2262 33.5406 27.9701C33.8865 26.714 34.1778 25.4215 34.4145 24.0926C34.6512 22.7636 35.0152 21.3984 35.5067 19.9966C35.9982 18.5948 36.9176 17.2204 38.2647 15.8733C39.6118 14.5262 40.9315 13.6069 42.2241 13.1154C43.5167 12.6239 44.8001 12.2689 46.0743 12.0504C47.3486 11.832 48.5865 11.5954 49.788 11.3405C50.9895 11.0855 52.1546 10.503 53.2833 9.59283L56.56 12.8696C55.1401 13.9984 53.7656 14.7538 52.4368 15.1361C51.1079 15.5183 49.8153 15.8279 48.5592 16.0645C47.3031 16.3011 46.0926 16.6015 44.9275 16.9656C43.7624 17.3296 42.6337 18.0579 41.5415 19.1501C40.4492 20.2424 39.7301 21.4166 39.3842 22.6727C39.0384 23.9288 38.738 25.2304 38.4831 26.5775C38.2283 27.9246 37.8641 29.2899 37.3909 30.6735C36.9176 32.057 36.0255 33.4041 34.7148 34.7148C33.4041 36.0255 32.057 36.9176 30.6735 37.3909C29.2899 37.8641 27.9337 38.2191 26.6048 38.4558C25.2758 38.6925 23.9743 38.9929 22.7 39.3569C21.4256 39.721 20.2424 40.4492 19.1501 41.5415C18.0579 42.6337 17.3388 43.7897 16.9929 45.0094C16.647 46.2291 16.374 47.467 16.1737 48.7231C15.9734 49.9791 15.673 51.2625 15.2726 52.5733C14.8721 53.884 14.0711 55.2129 12.8696 56.56ZM3.25772 46.9482L-0.0190625 43.6714C0.927523 42.5791 1.53744 41.4414 1.81047 40.2581C2.08351 39.0747 2.32016 37.855 2.52045 36.599C2.72073 35.3429 3.05748 34.0413 3.53079 32.6941C4.00406 31.3471 4.91435 29.9999 6.26144 28.6528C7.60852 27.3057 8.98291 26.3863 10.3847 25.8948C11.7865 25.4033 13.1517 25.0393 14.4807 24.8026C15.8097 24.5659 17.1021 24.2746 18.3582 23.9288C19.6143 23.5829 20.7703 22.882 21.8262 21.8262C22.882 20.7703 23.5829 19.6143 23.9288 18.3582C24.2746 17.1021 24.5659 15.8097 24.8026 14.4807C25.0393 13.1517 25.4033 11.7865 25.8948 10.3847C26.3863 8.98292 27.3057 7.60852 28.6528 6.26144C29.9999 4.91435 31.3379 4.01324 32.6668 3.55809C33.9958 3.10295 35.2974 2.7662 36.5717 2.54775C37.8459 2.3293 39.0747 2.08354 40.2581 1.81048C41.4414 1.53741 42.5791 0.927488 43.6714 -0.019064L46.9482 3.25772C45.601 4.45921 44.2721 5.26027 42.9614 5.6607C41.6507 6.06112 40.3581 6.37067 39.0839 6.58912C37.8096 6.80757 36.5717 7.08063 35.3702 7.40831C34.1687 7.73599 33.0218 8.44596 31.9296 9.53822C30.8373 10.6305 30.1091 11.8137 29.745 13.0881C29.381 14.3624 29.0806 15.6639 28.8439 16.9929C28.6072 18.3219 28.2522 19.678 27.779 21.0616C27.3057 22.4451 26.4136 23.7922 25.1029 25.1029C23.7922 26.4136 22.4451 27.3057 21.0616 27.779C19.678 28.2522 18.3219 28.6072 16.9929 28.8439C15.6639 29.0806 14.3624 29.381 13.0881 29.745C11.8137 30.1091 10.6305 30.8373 9.53822 31.9296C8.44596 33.0218 7.72692 34.1778 7.381 35.3975C7.03509 36.6172 6.7621 37.8551 6.56181 39.1112C6.36152 40.3672 6.06115 41.6507 5.66069 42.9614C5.26024 44.2721 4.45917 45.601 3.25772 46.9482ZM-6.35417 37.3363L-9.63096 34.0595C-8.72074 32.9308 -8.13824 31.7657 -7.88334 30.5642C-7.62844 29.3628 -7.40092 28.134 -7.20068 26.8779C-7.00042 25.6218 -6.64544 24.3384 -6.13572 23.0276C-5.62603 21.717 -4.69754 20.388 -3.35046 19.0409C-2.00337 17.6938 -0.628938 16.7745 0.772826 16.2829C2.1746 15.7914 3.53985 15.4274 4.8688 15.1907C6.19776 14.954 7.49023 14.6627 8.74633 14.3169C10.0024 13.9711 11.1584 13.2701 12.2143 12.2143C13.2701 11.1584 13.971 10.0024 14.3169 8.74633C14.6627 7.49023 14.954 6.19776 15.1907 4.86881C15.4274 3.53985 15.7914 2.1746 16.2829 0.772829C16.7745 -0.628935 17.6938 -2.00337 19.0409 -3.35046C20.388 -4.69754 21.7078 -5.61685 23.0003 -6.10841C24.2929 -6.59996 25.5763 -6.95495 26.8506 -7.17337C28.1248 -7.39178 29.3627 -7.6284 30.5642 -7.88334C31.7657 -8.13827 32.9308 -8.72078 34.0595 -9.63096L37.3363 -6.35418C35.9891 -5.15269 34.6602 -4.35162 33.3495 -3.9512C32.0388 -3.55078 30.7462 -3.24123 29.472 -3.02278C28.1977 -2.80433 26.9598 -2.53126 25.7583 -2.20358C24.5568 -1.8759 23.4099 -1.16594 22.3177 -0.0736749C21.2254 1.01859 20.4972 2.20183 20.1331 3.47617C19.7691 4.75051 19.4687 6.05205 19.232 7.38101C18.9953 8.70996 18.6404 10.0661 18.1671 11.4497C17.6938 12.8332 16.8018 14.1803 15.491 15.491C14.1803 16.8018 12.8332 17.6938 11.4497 18.1671C10.0661 18.6404 8.70996 18.9953 7.38101 19.232C6.05205 19.4687 4.75051 19.7691 3.47617 20.1331C2.20183 20.4972 1.01859 21.2254 -0.0736754 22.3177C-1.16594 23.4099 -1.88497 24.5659 -2.23089 25.7856C-2.57681 27.0053 -2.8498 28.2432 -3.05009 29.4993C-3.25037 30.7554 -3.55075 32.0388 -3.9512 33.3495C-4.35166 34.6602 -5.15272 35.9891 -6.35417 37.3363Z" fill="#0059FF" fill-opacity="0.15"/>
<path d="M25.8018 27.9092C25.6299 27.9307 25.3971 27.9665 25.1035 28.0166C24.8171 28.0596 24.5843 28.124 24.4053 28.21C24.1904 28.3174 24.0365 28.4714 23.9434 28.6719C23.8574 28.8652 23.8145 29.0944 23.8145 29.3594V30.541C23.8145 31.4004 23.818 31.9805 23.8252 32.2812C23.8395 32.582 23.8538 32.8291 23.8682 33.0225C22.9157 33.4521 21.9668 33.7816 21.0215 34.0107C20.0762 34.2399 19.1488 34.3545 18.2393 34.3545C17.2653 34.3545 16.3271 34.1719 15.4248 33.8066C14.5225 33.4414 13.7347 32.9222 13.0615 32.249C12.3812 31.5687 11.8405 30.7415 11.4395 29.7676C11.0384 28.7936 10.8379 27.7051 10.8379 26.502C10.8379 25.3418 11.0277 24.2676 11.4072 23.2793C11.7939 22.2839 12.3382 21.4209 13.04 20.6904C13.7204 19.9743 14.5296 19.4193 15.4678 19.0254C16.4131 18.6243 17.4229 18.4238 18.4971 18.4238C19.3564 18.4238 20.1048 18.5277 20.7422 18.7354C21.3796 18.943 21.9417 19.1937 22.4287 19.4873L22.8691 18.7568H23.7285L23.8252 24.085H22.9443C22.7939 23.4977 22.6077 22.9212 22.3857 22.3555C22.1637 21.7826 21.8773 21.2705 21.5264 20.8193C21.1755 20.3682 20.7458 20.0101 20.2373 19.7451C19.736 19.473 19.1344 19.3369 18.4326 19.3369C17.6663 19.3369 16.9824 19.4945 16.3809 19.8096C15.7793 20.1175 15.2565 20.5794 14.8125 21.1953C14.3757 21.7897 14.0391 22.5309 13.8027 23.4189C13.5664 24.307 13.4482 25.2988 13.4482 26.3945C13.4482 27.3613 13.5628 28.2744 13.792 29.1338C14.0283 29.986 14.3685 30.7236 14.8125 31.3467C15.2565 31.984 15.8115 32.4854 16.4775 32.8506C17.1436 33.2158 17.8991 33.3984 18.7441 33.3984C19.3743 33.3984 19.9473 33.3018 20.4629 33.1084C20.9857 32.915 21.3545 32.7109 21.5693 32.4961C21.6266 32.1237 21.6553 31.7477 21.6553 31.3682C21.6624 30.9886 21.666 30.6663 21.666 30.4014V29.5635C21.666 29.2627 21.623 28.9977 21.5371 28.7686C21.4583 28.5322 21.29 28.3604 21.0322 28.2529C20.7959 28.1455 20.4736 28.0667 20.0654 28.0166C19.6644 27.9593 19.3493 27.9235 19.1201 27.9092V27.125H25.8018V27.9092ZM42.3013 34H38.1978C37.2883 32.5749 36.4647 31.3431 35.7271 30.3047C34.9966 29.2663 34.2017 28.1956 33.3423 27.0928H31.7847V31.9268C31.7847 32.1774 31.8241 32.3994 31.9029 32.5928C31.9817 32.779 32.15 32.9222 32.4078 33.0225C32.5367 33.0726 32.7623 33.1191 33.0845 33.1621C33.4068 33.2051 33.6789 33.2301 33.9009 33.2373V34H27.4556V33.2373C27.6275 33.223 27.8746 33.1979 28.1968 33.1621C28.5263 33.1263 28.7554 33.0798 28.8843 33.0225C29.0992 32.9294 29.2532 32.7933 29.3463 32.6143C29.4465 32.4352 29.4966 32.2061 29.4966 31.9268V20.9053C29.4966 20.6546 29.4608 20.4326 29.3892 20.2393C29.3176 20.0459 29.1493 19.8991 28.8843 19.7988C28.7053 19.7344 28.4726 19.6771 28.1861 19.627C27.8996 19.5697 27.6561 19.5339 27.4556 19.5195V18.7568H34.4918C35.1363 18.7568 35.7414 18.8249 36.3072 18.9609C36.8729 19.0898 37.385 19.3011 37.8433 19.5947C38.2873 19.8812 38.6418 20.2572 38.9068 20.7227C39.1718 21.181 39.3043 21.736 39.3043 22.3877C39.3043 22.9749 39.2147 23.4941 39.0357 23.9453C38.8567 24.3965 38.5917 24.7868 38.2408 25.1162C37.9185 25.4242 37.5318 25.6927 37.0806 25.9219C36.6295 26.1439 36.1317 26.3337 35.5875 26.4912C36.3394 27.4867 36.9625 28.3245 37.4566 29.0049C37.9579 29.6852 38.5702 30.5124 39.2935 31.4863C39.6086 31.916 39.8915 32.2347 40.1421 32.4424C40.4 32.6429 40.6542 32.8076 40.9048 32.9365C41.091 33.0296 41.3238 33.1012 41.6031 33.1514C41.8824 33.2015 42.1151 33.2301 42.3013 33.2373V34ZM36.6509 22.6348C36.6509 21.7109 36.386 20.9805 35.856 20.4434C35.3261 19.8991 34.5777 19.627 33.6109 19.627H31.7847V26.1689H33.192C34.1802 26.1689 35.0038 25.8538 35.6627 25.2236C36.3215 24.5863 36.6509 23.7233 36.6509 22.6348Z" fill="#0059FF"/>
</g>
</svg>
